<svg width="44" height="50" viewBox="0 0 44 50" fill="none" xmlns="http://www.w3.org/2000/svg">
<g clip-path="url(#clip0_110_4155)">
<path d="M23.1891 48.4521C22.2333 49.3279 20.7667 49.3279 19.8109 48.4521L14.5478 43.6288C12.8668 42.0883 13.9567 39.2857 16.2369 39.2857L26.7631 39.2857C29.0433 39.2857 30.1332 42.0883 28.4522 43.6288L23.1891 48.4521Z" fill="white"/>
<rect width="44" height="44" rx="10" fill="white"/>
<rect x="2" y="2" width="40" height="40" rx="8" fill="#00C7BE"/>
<path d="M22.75 30.66L28.934 23.562C31.611 20.678 31.493 17.056 29.688 14.857C28.79 13.762 27.482 13.041 25.968 13.002C24.675 12.968 23.316 13.432 22.005 14.444C20.69 13.432 19.327 12.968 18.032 13.002C16.517 13.042 15.207 13.762 14.308 14.857C12.502 17.058 12.393 20.68 15.08 23.563L21.263 30.66C21.453 30.876 21.723 31 22.006 31C22.147 30.9998 22.2863 30.9693 22.4144 30.9107C22.5426 30.852 22.6567 30.7666 22.749 30.66H22.75Z" fill="white"/>
</g>
<defs>
<clipPath id="clip0_110_4155">
<rect width="44" height="50" fill="white"/>
</clipPath>
</defs>
</svg>
