<svg width="44" height="50" viewBox="0 0 44 50" fill="none" xmlns="http://www.w3.org/2000/svg">
<g clip-path="url(#clip0_110_4155)">
<path d="M23.1891 48.4521C22.2333 49.3279 20.7667 49.3279 19.8109 48.4521L14.5478 43.6288C12.8668 42.0883 13.9567 39.2857 16.2369 39.2857L26.7631 39.2857C29.0433 39.2857 30.1332 42.0883 28.4522 43.6288L23.1891 48.4521Z" fill="white"/>
<rect width="44" height="44" rx="10" fill="white"/>
<rect x="2" y="2" width="40" height="40" rx="8" fill="#32ADE6"/>
<path d="M23.2143 10.7678V14.4695C22.9796 14.3912 22.7405 14.3043 22.5 14.2122V12.5714V11.7797L21.7851 12.12C18.4925 13.6874 15.2218 13.6874 11.9292 12.12L11.2143 11.7797V12.5714V22H11.7143C11.2143 22 11.2143 22.0003 11.2143 22.0005L11.2143 22.0012L11.2143 22.0029L11.2143 22.0077L11.2145 22.0228C11.2147 22.0353 11.2151 22.0526 11.2158 22.0744C11.2173 22.118 11.2201 22.1796 11.2256 22.2566C11.2366 22.4105 11.2583 22.6271 11.3014 22.8858C11.3873 23.4007 11.5598 24.0948 11.9099 24.795C12.261 25.4972 12.7955 26.2146 13.6066 26.7553C14.4208 27.2981 15.4839 27.6429 16.8571 27.6429C17.4556 27.6429 18.0003 27.5738 18.4894 27.4526C18.4892 27.4774 18.4892 27.5033 18.4893 27.5304C18.4899 27.6986 18.496 27.9112 18.5144 28.158C18.0105 28.2758 17.4671 28.3571 16.8571 28.3571C15.2303 28.3571 14.0435 27.9519 13.1702 27.3697C12.2938 26.7854 11.7033 26.0028 11.3044 25.205C10.9045 24.4052 10.702 23.5993 10.6003 22.9892C10.5497 22.6854 10.5246 22.4332 10.5121 22.259C10.5059 22.172 10.5029 22.1047 10.5014 22.0604C10.5007 22.0382 10.5003 22.0218 10.5001 22.0116L10.5 22.001L10.5 22L10.5 21.9996L10.5 21.9994V10.754C12.8062 11.698 14.8203 12.2078 16.8538 12.2215C18.8877 12.2353 20.9034 11.7527 23.2143 10.7678ZM23.7143 26.6429H23.2143V27.1429C23.2143 28.1626 23.7191 29.1405 24.4322 29.8536C25.1452 30.5666 26.1231 31.0714 27.1429 31.0714C28.1626 31.0714 29.1405 30.5666 29.8536 29.8536C30.5666 29.1405 31.0714 28.1626 31.0714 27.1429V26.6429H30.5714H23.7143ZM13.0714 16.8571C13.0714 16.1865 13.6151 15.6429 14.2857 15.6429C14.9563 15.6429 15.5 16.1865 15.5 16.8571C15.5 17.5278 14.9563 18.0714 14.2857 18.0714C13.6151 18.0714 13.0714 17.5278 13.0714 16.8571ZM20.7857 27.1424L20.7857 27.1421L20.7857 15.8969C23.092 16.8408 25.106 17.3506 27.1395 17.3644C29.1734 17.3782 31.1891 16.8956 33.5 15.9106V27.1422V27.1424V27.1429L33.5 27.1439L33.4999 27.1545C33.4997 27.1647 33.4993 27.1811 33.4986 27.2032C33.4971 27.2475 33.4941 27.3149 33.4879 27.4019C33.4754 27.5761 33.4503 27.8282 33.3997 28.1321C33.298 28.7422 33.0955 29.548 32.6956 30.3478C32.2967 31.1457 31.7062 31.9283 30.8298 32.5125C29.9565 33.0947 28.7696 33.5 27.1429 33.5C25.5161 33.5 24.3292 33.0947 23.4559 32.5125C22.5795 31.9283 21.989 31.1457 21.5901 30.3478C21.1902 29.548 20.9877 28.7422 20.8861 28.1321C20.8354 27.8282 20.8103 27.5761 20.7978 27.4019C20.7916 27.3149 20.7886 27.2475 20.7871 27.2032C20.7864 27.1811 20.786 27.1647 20.7859 27.1545L20.7857 27.1439L20.7857 27.1429V27.1424ZM26.7857 22C26.7857 20.7771 25.7943 19.7857 24.5714 19.7857C23.3485 19.7857 22.3571 20.7771 22.3571 22C22.3571 23.2229 23.3485 24.2143 24.5714 24.2143C25.7943 24.2143 26.7857 23.2229 26.7857 22ZM31.9286 22C31.9286 20.7771 30.9372 19.7857 29.7143 19.7857C28.4914 19.7857 27.5 20.7771 27.5 22C27.5 23.2229 28.4914 24.2143 29.7143 24.2143C30.9372 24.2143 31.9286 23.2229 31.9286 22ZM18.5 24.0714H13.9598C14.033 23.4968 14.2366 22.9617 14.5855 22.547C15.0216 22.0286 15.7304 21.6429 16.8571 21.6429C17.5828 21.6429 18.1051 21.7792 18.5 22.0037V24.0714Z" fill="white" stroke="white"/>
</g>
<defs>
<clipPath id="clip0_110_4155">
<rect width="44" height="50" fill="white"/>
</clipPath>
</defs>
</svg>
