<svg width="44" height="50" viewBox="0 0 44 50" fill="none" xmlns="http://www.w3.org/2000/svg">
<g clip-path="url(#clip0_110_4194)">
<path d="M23.1891 48.4521C22.2333 49.3279 20.7667 49.3279 19.8109 48.4521L14.5478 43.6288C12.8668 42.0883 13.9567 39.2857 16.2369 39.2857L26.7631 39.2857C29.0433 39.2857 30.1332 42.0883 28.4522 43.6288L23.1891 48.4521Z" fill="white"/>
<rect width="44" height="44" rx="10" fill="white"/>
<rect x="2" y="2" width="40" height="40" rx="8" fill="#FF3B30"/>
<path d="M21.2482 13.2144C21.0916 12.1832 20.7749 11.1394 20.3137 10.1194C17.9183 10.4562 15.7501 11.5001 14.0267 13.0335L19.9805 18.9873C21.1438 17.508 21.5934 15.4874 21.2482 13.2144Z" fill="white"/>
<path d="M19.9868 20.9807C18.5649 22.1548 16.7354 22.7681 14.68 22.7682C14.1354 22.7682 13.5752 22.7252 13.0023 22.6382C12.0014 22.4862 10.9926 22.2011 10.0025 21.7943C10.0015 21.8625 10 21.9306 10 21.9991C10 25.0597 11.1465 27.8521 13.0325 29.9718L21.0052 21.9991L19.9868 20.9807Z" fill="white"/>
<path d="M18.9864 19.9796L13.0326 14.0258C11.4991 15.7491 10.4553 17.9173 10.1185 20.3127C11.1385 20.7739 12.1824 21.0907 13.2135 21.2473C15.4866 21.5925 17.5071 21.1428 18.9864 19.9796Z" fill="white"/>
<path d="M30.7857 22.751C28.5127 22.4057 26.4921 22.8554 25.0128 24.0187L30.9666 29.9726C32.5 28.2491 33.5438 26.081 33.8807 23.6856C32.8608 23.2244 31.8169 22.9077 30.7857 22.751Z" fill="white"/>
<path d="M23.0176 24.013L21.9994 22.9948L14.0267 30.9675C16.1464 32.8536 18.9388 34 21.9994 34C22.0679 34 22.136 33.9986 22.2042 33.9974C21.7975 33.0074 21.5123 31.9985 21.3603 30.9977C20.945 28.2626 21.5325 25.8116 23.0176 24.013Z" fill="white"/>
<path d="M20.9813 19.987L21.9994 21.0052L29.9721 13.0325C27.8524 11.1464 25.06 10 21.9994 10C21.931 10 21.8628 10.0015 21.7946 10.0026C22.2014 10.9926 22.4865 12.0013 22.6386 13.0023C23.0539 15.7374 22.4664 18.1884 20.9813 19.987Z" fill="white"/>
<path d="M22.7503 30.7857C22.9069 31.8168 23.2237 32.8607 23.6849 33.8807C26.0803 33.5439 28.2485 32.5001 29.9718 30.9667L24.018 25.0128C22.8548 26.4922 22.4052 28.5128 22.7503 30.7857Z" fill="white"/>
<path d="M24.0123 23.0167C25.811 21.5315 28.262 20.9441 30.9971 21.3594C31.998 21.5114 33.0068 21.7966 33.9968 22.2033C33.9979 22.1351 33.9994 22.067 33.9994 21.9985C33.9994 18.9379 32.8529 16.1455 30.9669 14.0258L22.9942 21.9985L24.0123 23.0167Z" fill="white"/>
</g>
<defs>
<clipPath id="clip0_110_4194">
<rect width="44" height="50" fill="white"/>
</clipPath>
</defs>
</svg>
