<svg width="44" height="50" viewBox="0 0 44 50" fill="none" xmlns="http://www.w3.org/2000/svg">
<g clip-path="url(#clip0_112_1137)">
<path d="M23.1891 48.4521C22.2333 49.3279 20.7667 49.3279 19.8109 48.4521L14.5478 43.6288C12.8668 42.0883 13.9567 39.2857 16.2369 39.2857L26.7631 39.2857C29.0433 39.2857 30.1332 42.0883 28.4522 43.6288L23.1891 48.4521Z" fill="white"/>
<rect width="44" height="44" rx="10" fill="white"/>
<rect x="2" y="2" width="40" height="40" rx="8" fill="#8E4B21"/>
<path fill-rule="evenodd" clip-rule="evenodd" d="M16 12C15.4696 12 14.9609 12.2107 14.5858 12.5858C14.2107 12.9609 14 13.4696 14 14V29C14 29.7956 14.3161 30.5587 14.8787 31.1213C15.4413 31.6839 16.2044 32 17 32H29C29.2652 32 29.5196 31.8946 29.7071 31.7071C29.8946 31.5196 30 31.2652 30 31C30 30.7348 29.8946 30.4804 29.7071 30.2929C29.5196 30.1054 29.2652 30 29 30H27V28H29C29.2652 28 29.5196 27.8946 29.7071 27.7071C29.8946 27.5196 30 27.2652 30 27V14C30 13.4696 29.7893 12.9609 29.4142 12.5858C29.0391 12.2107 28.5304 12 28 12H20V28H25V30H17C16.7348 30 16.4804 29.8946 16.2929 29.7071C16.1054 29.5196 16 29.2652 16 29C16 28.7348 16.1054 28.4804 16.2929 28.2929C16.4804 28.1054 16.7348 28 17 28H18V12H16Z" fill="white"/>
</g>
<defs>
<clipPath id="clip0_112_1137">
<rect width="44" height="50" fill="white"/>
</clipPath>
</defs>
</svg>
