<svg width="44" height="50" viewBox="0 0 44 50" fill="none" xmlns="http://www.w3.org/2000/svg">
<g clip-path="url(#clip0_112_1137)">
<path d="M23.1891 48.4521C22.2333 49.3279 20.7667 49.3279 19.8109 48.4521L14.5478 43.6288C12.8668 42.0883 13.9567 39.2857 16.2369 39.2857L26.7631 39.2857C29.0433 39.2857 30.1332 42.0883 28.4522 43.6288L23.1891 48.4521Z" fill="white"/>
<rect width="44" height="44" rx="10" fill="white"/>
<rect x="2" y="2" width="40" height="40" rx="8" fill="#FAAC4A"/>
<path fill-rule="evenodd" clip-rule="evenodd" d="M20.8 13.8623C18.0568 13.1647 15.808 12.953 12.346 13.0084C11.7193 13.0194 11.1221 13.2769 10.6833 13.7254C10.2444 14.1738 9.99896 14.7772 10 15.4053V28.6349C10 29.9975 11.1208 31.0667 12.4528 31.0487C15.7636 31.003 17.8528 31.2411 20.8 32V13.8623ZM23.2 32C26.1472 31.2411 28.2376 31.003 31.5472 31.0487C31.867 31.0536 32.1847 30.9948 32.4816 30.8758C32.7786 30.7567 33.0491 30.5797 33.2772 30.355C33.5054 30.1303 33.6868 29.8625 33.8109 29.567C33.935 29.2715 33.9992 28.9543 34 28.6337V15.4053C34.001 14.7772 33.7556 14.1738 33.3167 13.7254C32.8779 13.2769 32.2807 13.0194 31.654 13.0084C28.192 12.953 25.942 13.1647 23.2 13.8623V32Z" fill="white"/>
</g>
<defs>
<clipPath id="clip0_112_1137">
<rect width="44" height="50" fill="white"/>
</clipPath>
</defs>
</svg>
