<svg width="44" height="50" viewBox="0 0 44 50" fill="none" xmlns="http://www.w3.org/2000/svg">
<g clip-path="url(#clip0_110_4149)">
<path d="M23.1891 48.4521C22.2333 49.3279 20.7667 49.3279 19.8109 48.4521L14.5478 43.6288C12.8668 42.0883 13.9567 39.2857 16.2369 39.2857L26.7631 39.2857C29.0433 39.2857 30.1332 42.0883 28.4522 43.6288L23.1891 48.4521Z" fill="white"/>
<rect width="44" height="44" rx="10" fill="white"/>
<rect x="2" y="2" width="40" height="40" rx="8" fill="#FF2D55"/>
<path d="M23.849 14.22C23.165 12.594 20.835 12.594 20.151 14.22L18.397 18.387L13.845 18.748C12.07 18.888 11.35 21.079 12.703 22.225L16.171 25.162L15.111 29.554C14.698 31.267 16.583 32.621 18.103 31.703L22 29.35L25.897 31.704C27.417 32.622 29.302 31.268 28.889 29.554L27.829 25.164L31.297 22.226C32.65 21.08 31.93 18.89 30.155 18.749L25.603 18.389L23.849 14.22Z" fill="white"/>
</g>
<defs>
<clipPath id="clip0_110_4149">
<rect width="44" height="50" fill="white"/>
</clipPath>
</defs>
</svg>
