<svg width="44" height="50" viewBox="0 0 44 50" fill="none" xmlns="http://www.w3.org/2000/svg">
<g clip-path="url(#clip0_159_110)">
<path d="M23.1891 48.4521C22.2333 49.3279 20.7667 49.3279 19.8109 48.4521L14.5478 43.6288C12.8668 42.0883 13.9567 39.2857 16.2369 39.2857L26.7631 39.2857C29.0433 39.2857 30.1332 42.0883 28.4522 43.6288L23.1891 48.4521Z" fill="white"/>
<rect width="44" height="44" rx="10" fill="white"/>
<rect x="2" y="2" width="40" height="40" rx="8" fill="#32ADE6"/>
<path fill-rule="evenodd" clip-rule="evenodd" d="M22 12C16.477 12 12 16.477 12 22C12 27.523 16.477 32 22 32C27.523 32 32 27.523 32 22C32 16.477 27.523 12 22 12ZM17 22.5C17.1205 22.5 17.2369 22.5435 17.3278 22.6225C17.4188 22.7015 17.4781 22.8107 17.495 22.93C17.5433 22.9682 17.596 23.0005 17.652 23.026C17.865 23.132 18.205 23.234 18.657 23.321C19.553 23.494 20.768 23.583 22 23.583C23.232 23.583 24.447 23.493 25.343 23.321C25.795 23.234 26.135 23.131 26.349 23.026C26.4047 23.0004 26.457 22.9681 26.505 22.93C26.5228 22.8048 26.5874 22.6911 26.6858 22.6116C26.7841 22.5321 26.909 22.4929 27.0351 22.5018C27.1612 22.5106 27.2793 22.567 27.3656 22.6594C27.4518 22.7519 27.4999 22.8736 27.5 23C27.5 24.19 26.856 25.438 25.882 26.375C24.9 27.319 23.531 28 22 28C20.469 28 19.1 27.319 18.118 26.375C17.144 25.438 16.5 24.19 16.5 23C16.5 22.8674 16.5527 22.7402 16.6464 22.6464C16.7402 22.5527 16.8674 22.5 17 22.5ZM17.481 22.917C17.4798 22.9158 17.4788 22.9145 17.478 22.913L17.481 22.917ZM18.382 18.064L19 16.81L19.619 18.063L21 18.263L20 19.239L20.236 20.615L18.999 19.965L17.764 20.615L18 19.239L17 18.264L18.382 18.064ZM24.382 18.064L25 16.81L25.619 18.063L27 18.263L26 19.239L26.236 20.615L24.999 19.965L23.764 20.615L24 19.239L23 18.264L24.382 18.064Z" fill="white"/>
</g>
<defs>
<clipPath id="clip0_159_110">
<rect width="44" height="50" fill="white"/>
</clipPath>
</defs>
</svg>
