<svg width="44" height="50" viewBox="0 0 44 50" fill="none" xmlns="http://www.w3.org/2000/svg">
<g clip-path="url(#clip0_110_4161)">
<path d="M23.1891 48.4521C22.2333 49.3279 20.7667 49.3279 19.8109 48.4521L14.5478 43.6288C12.8668 42.0883 13.9567 39.2857 16.2369 39.2857L26.7631 39.2857C29.0433 39.2857 30.1332 42.0883 28.4522 43.6288L23.1891 48.4521Z" fill="white"/>
<rect width="44" height="44" rx="10" fill="white"/>
<rect x="2" y="2" width="40" height="40" rx="8" fill="#34C759"/>
<g clip-path="url(#clip1_110_4161)">
<path d="M31.1306 28.6994L23.4289 20.9977L14.4309 11.9996H13.7277L13.5841 12.3645C13.2051 13.3275 13.0432 14.3125 13.1159 15.2128C13.1987 16.239 13.5886 17.1275 14.2434 17.7823L21.2678 24.8067L22.1943 23.8802L28.6883 31.1417C29.3343 31.7878 30.4462 31.8261 31.1306 31.1417C31.804 30.4683 31.804 29.3727 31.1306 28.6994Z" fill="white"/>
<path d="M18.0124 23.1808L12.5109 28.6823C11.8376 29.3556 11.8376 30.4512 12.5109 31.1245C13.1506 31.7642 14.2571 31.8207 14.9532 31.1245L20.4547 25.623L18.0124 23.1808Z" fill="white"/>
<path d="M30.8074 15.2696L27.6867 18.3903L26.8725 17.5762L29.9933 14.4554L29.1792 13.6413L26.0585 16.762L25.2443 15.9479L28.3651 12.8272L27.551 12.0131L23.4805 16.0837C22.9825 16.5816 22.6852 17.2428 22.6431 17.9455C22.6325 18.1236 22.5921 18.2987 22.5252 18.4653L25.1694 21.1095C25.336 21.0425 25.5112 21.0022 25.6892 20.9915C26.3919 20.9496 27.0531 20.6522 27.551 20.1542L31.6216 16.0837L30.8074 15.2696Z" fill="white"/>
</g>
</g>
<defs>
<clipPath id="clip0_110_4161">
<rect width="44" height="50" fill="white"/>
</clipPath>
<clipPath id="clip1_110_4161">
<rect width="19.6411" height="19.6411" fill="white" transform="translate(12 12)"/>
</clipPath>
</defs>
</svg>
