<svg xmlns="http://www.w3.org/2000/svg" fill="none" viewBox="0 0 44 50">
  <g clip-path="url(#a)">
    <path fill="#fff" d="M23.1891 48.4521c-.9558.8758-2.4224.8758-3.3782 0l-5.2631-4.8233c-1.681-1.5405-.5911-4.3431 1.6891-4.3431h10.5262c2.2802 0 3.3701 2.8026 1.6891 4.3431l-5.2631 4.8233Z"/>
    <rect width="44" height="44" fill="#fff" rx="10"/>
    <rect width="40" height="40" x="2" y="2" fill="#FAAC4A" rx="8"/>
    <g clip-path="url(#b)">
      <path fill="#fff" d="M31.8614 17.2731c-.0694-1.2498-.387-2.4853-.9493-3.6385-.471-.9669-1.11-1.8729-1.9279-2.6751-3.8594-3.78163-10.1103-3.78163-13.9697 0-.8143.8022-1.4569 1.7082-1.9279 2.6751l-.0037.0072c-.5623 1.1567-.8763 2.3958-.9456 3.6456v.0072c-.1424 2.6536.8179 5.3466 2.8772 7.3663l-.0146.0143 2.3295 2.2848 6.9995-6.8686c1.2852-1.2605 1.2852-3.3054 0-4.5659-1.2853-1.2606-3.3738-1.2606-4.6591 0-1.2816 1.2641-1.2852 3.3089 0 4.5695l-2.3258 2.2812c-1.7198-1.6867-2.2894-4.0754-1.7088-6.224l.0036-.0108c.2885-1.0636.8581-2.0663 1.7052-2.8971 2.5705-2.5247 6.7402-2.5247 9.3107 0 .8508.8308 1.4167 1.8335 1.7052 2.8935.5842 2.1559.0182 4.5481-1.7052 6.2384l-6.9995 6.865c-1.2852 1.2605-1.2852 3.3089 0 4.5695 1.2853 1.257 3.3701 1.257 4.6554 0 1.2852-1.2606 1.2889-3.309 0-4.5695l4.6736-4.5803c2.0666-2.0305 3.0269-4.7342 2.8772-7.3878Z"/>
    </g>
  </g>
  <defs>
    <clipPath id="a">
      <path fill="#fff" d="M0 0h44v50H0z"/>
    </clipPath>
    <clipPath id="b">
      <path fill="#fff" d="M0 0h20v27H0z" transform="translate(12 8)"/>
    </clipPath>
  </defs>
</svg>
