<svg width="44" height="50" viewBox="0 0 44 50" fill="none" xmlns="http://www.w3.org/2000/svg">
<g clip-path="url(#clip0_159_66)">
<path d="M23.1891 48.4521C22.2333 49.3279 20.7667 49.3279 19.8109 48.4521L14.5478 43.6288C12.8668 42.0883 13.9567 39.2857 16.2369 39.2857L26.7631 39.2857C29.0433 39.2857 30.1332 42.0883 28.4522 43.6288L23.1891 48.4521Z" fill="white"/>
<rect width="44" height="44" rx="10" fill="white"/>
<rect x="2" y="2" width="40" height="40" rx="8" fill="#1C3983"/>
<path fill-rule="evenodd" clip-rule="evenodd" d="M20 12C19.2044 12 18.4413 12.3161 17.8787 12.8787C17.3161 13.4413 17 14.2044 17 15V16H15C14.2044 16 13.4413 16.3161 12.8787 16.8787C12.3161 17.4413 12 18.2044 12 19V21.382L13.447 22.105L13.452 22.108L13.479 22.121L13.599 22.177C13.707 22.227 13.871 22.3 14.085 22.389C14.514 22.566 15.141 22.805 15.919 23.044C17.481 23.524 19.63 24 22 24C24.372 24 26.52 23.525 28.08 23.044C28.86 22.804 29.486 22.566 29.915 22.389C30.1191 22.3045 30.3211 22.2151 30.521 22.121L30.548 22.108L30.553 22.106L32 21.381V19C32 18.2044 31.6839 17.4413 31.1213 16.8787C30.5587 16.3161 29.7956 16 29 16H27V15C27 14.2044 26.6839 13.4413 26.1213 12.8787C25.5587 12.3161 24.7956 12 24 12H20ZM25 16V15C25 14.7348 24.8946 14.4804 24.7071 14.2929C24.5196 14.1054 24.2652 14 24 14H20C19.7348 14 19.4804 14.1054 19.2929 14.2929C19.1054 14.4804 19 14.7348 19 15V16H25ZM31.447 23.894L32 23.618V29C32 29.7956 31.6839 30.5587 31.1213 31.1213C30.5587 31.6839 29.7956 32 29 32H15C14.2044 32 13.4413 31.6839 12.8787 31.1213C12.3161 30.5587 12 29.7956 12 29V23.618L12.553 23.894L12.555 23.896L12.559 23.898L12.572 23.904L12.613 23.924L12.764 23.994C12.894 24.054 13.082 24.138 13.321 24.236C13.799 24.434 14.484 24.696 15.331 24.956C17.019 25.476 19.37 26 22 26C24.628 26 26.98 25.475 28.67 24.956C29.3508 24.7473 30.0215 24.5071 30.68 24.236C30.9181 24.1377 31.1539 24.0337 31.387 23.924L31.428 23.904L31.441 23.898L31.445 23.896L31.446 23.895L31.015 23.029L31.447 23.894ZM22 20C21.7348 20 21.4804 20.1054 21.2929 20.2929C21.1054 20.4804 21 20.7348 21 21C21 21.2652 21.1054 21.5196 21.2929 21.7071C21.4804 21.8946 21.7348 22 22 22H22.01C22.2752 22 22.5296 21.8946 22.7171 21.7071C22.9046 21.5196 23.01 21.2652 23.01 21C23.01 20.7348 22.9046 20.4804 22.7171 20.2929C22.5296 20.1054 22.2752 20 22.01 20H22Z" fill="white"/>
</g>
<defs>
<clipPath id="clip0_159_66">
<rect width="44" height="50" fill="white"/>
</clipPath>
</defs>
</svg>
